<mxfile host="app.diagrams.net" modified="2023-11-14T16:37:24.964Z" agent="Mozilla/5.0 (Macintosh; Intel Mac OS X 10_15_7) AppleWebKit/605.1.15 (KHTML, like Gecko) Version/17.0 Safari/605.1.15" etag="TYcf2Aja-Kusj5f9-hPw" version="22.1.1" type="google">
  <diagram id="C5RBs43oDa-KdzZeNtuy" name="Page-1">
    <mxGraphModel grid="1" page="1" gridSize="10" guides="1" tooltips="1" connect="1" arrows="1" fold="1" pageScale="1" pageWidth="827" pageHeight="1169" math="0" shadow="0">
      <root>
        <mxCell id="WIyWlLk6GJQsqaUBKTNV-0" />
        <mxCell id="WIyWlLk6GJQsqaUBKTNV-1" parent="WIyWlLk6GJQsqaUBKTNV-0" />
        <mxCell id="zkfFHV4jXpPFQw0GAbJ--6" value="Student" style="swimlane;fontStyle=0;align=center;verticalAlign=top;childLayout=stackLayout;horizontal=1;startSize=26;horizontalStack=0;resizeParent=1;resizeLast=0;collapsible=1;marginBottom=0;rounded=0;shadow=0;strokeWidth=1;" vertex="1" parent="WIyWlLk6GJQsqaUBKTNV-1">
          <mxGeometry x="-230" y="60" width="200" height="358" as="geometry">
            <mxRectangle x="130" y="380" width="160" height="26" as="alternateBounds" />
          </mxGeometry>
        </mxCell>
        <mxCell id="zkfFHV4jXpPFQw0GAbJ--7" value="- firstName : String" style="text;align=left;verticalAlign=top;spacingLeft=4;spacingRight=4;overflow=hidden;rotatable=0;points=[[0,0.5],[1,0.5]];portConstraint=eastwest;" vertex="1" parent="zkfFHV4jXpPFQw0GAbJ--6">
          <mxGeometry y="26" width="200" height="26" as="geometry" />
        </mxCell>
        <mxCell id="AZbB6S3Q3ucaZbMWuehh-60" value="- lastName: String" style="text;align=left;verticalAlign=top;spacingLeft=4;spacingRight=4;overflow=hidden;rotatable=0;points=[[0,0.5],[1,0.5]];portConstraint=eastwest;" vertex="1" parent="zkfFHV4jXpPFQw0GAbJ--6">
          <mxGeometry y="52" width="200" height="26" as="geometry" />
        </mxCell>
        <mxCell id="dq-KWPvXL9YvY-tcfult-2" value="- finalResult: int" style="text;align=left;verticalAlign=top;spacingLeft=4;spacingRight=4;overflow=hidden;rotatable=0;points=[[0,0.5],[1,0.5]];portConstraint=eastwest;" vertex="1" parent="zkfFHV4jXpPFQw0GAbJ--6">
          <mxGeometry y="78" width="200" height="26" as="geometry" />
        </mxCell>
        <mxCell id="dq-KWPvXL9YvY-tcfult-3" value="- studentYear: int" style="text;align=left;verticalAlign=top;spacingLeft=4;spacingRight=4;overflow=hidden;rotatable=0;points=[[0,0.5],[1,0.5]];portConstraint=eastwest;" vertex="1" parent="zkfFHV4jXpPFQw0GAbJ--6">
          <mxGeometry y="104" width="200" height="26" as="geometry" />
        </mxCell>
        <mxCell id="zkfFHV4jXpPFQw0GAbJ--9" value="" style="line;html=1;strokeWidth=1;align=left;verticalAlign=middle;spacingTop=-1;spacingLeft=3;spacingRight=3;rotatable=0;labelPosition=right;points=[];portConstraint=eastwest;" vertex="1" parent="zkfFHV4jXpPFQw0GAbJ--6">
          <mxGeometry y="130" width="200" height="8" as="geometry" />
        </mxCell>
        <mxCell id="KhpU_kcYNKZ85qFfXGZm-1" value="+ getFirstName(): String" style="text;align=left;verticalAlign=top;spacingLeft=4;spacingRight=4;overflow=hidden;rotatable=0;points=[[0,0.5],[1,0.5]];portConstraint=eastwest;rounded=0;shadow=0;html=0;" vertex="1" parent="zkfFHV4jXpPFQw0GAbJ--6">
          <mxGeometry y="138" width="200" height="26" as="geometry" />
        </mxCell>
        <mxCell id="dq-KWPvXL9YvY-tcfult-11" value="+ getLastName(): String" style="text;align=left;verticalAlign=top;spacingLeft=4;spacingRight=4;overflow=hidden;rotatable=0;points=[[0,0.5],[1,0.5]];portConstraint=eastwest;rounded=0;shadow=0;html=0;" vertex="1" parent="zkfFHV4jXpPFQw0GAbJ--6">
          <mxGeometry y="164" width="200" height="26" as="geometry" />
        </mxCell>
        <mxCell id="AZbB6S3Q3ucaZbMWuehh-61" value="+ getStudentYear(): int" style="text;align=left;verticalAlign=top;spacingLeft=4;spacingRight=4;overflow=hidden;rotatable=0;points=[[0,0.5],[1,0.5]];portConstraint=eastwest;rounded=0;shadow=0;html=0;" vertex="1" parent="zkfFHV4jXpPFQw0GAbJ--6">
          <mxGeometry y="190" width="200" height="26" as="geometry" />
        </mxCell>
        <mxCell id="AZbB6S3Q3ucaZbMWuehh-62" value="+ getFinalResult(): int" style="text;align=left;verticalAlign=top;spacingLeft=4;spacingRight=4;overflow=hidden;rotatable=0;points=[[0,0.5],[1,0.5]];portConstraint=eastwest;rounded=0;shadow=0;html=0;" vertex="1" parent="zkfFHV4jXpPFQw0GAbJ--6">
          <mxGeometry y="216" width="200" height="26" as="geometry" />
        </mxCell>
        <mxCell id="dq-KWPvXL9YvY-tcfult-8" value="+ setFinalResult(int finalResult): Void" style="text;align=left;verticalAlign=top;spacingLeft=4;spacingRight=4;overflow=hidden;rotatable=0;points=[[0,0.5],[1,0.5]];portConstraint=eastwest;rounded=0;shadow=0;html=0;" vertex="1" parent="zkfFHV4jXpPFQw0GAbJ--6">
          <mxGeometry y="242" width="200" height="26" as="geometry" />
        </mxCell>
        <mxCell id="KhpU_kcYNKZ85qFfXGZm-2" value="+ setFirstName(String): Void" style="text;align=left;verticalAlign=top;spacingLeft=4;spacingRight=4;overflow=hidden;rotatable=0;points=[[0,0.5],[1,0.5]];portConstraint=eastwest;rounded=0;shadow=0;html=0;" vertex="1" parent="zkfFHV4jXpPFQw0GAbJ--6">
          <mxGeometry y="268" width="200" height="32" as="geometry" />
        </mxCell>
        <mxCell id="dq-KWPvXL9YvY-tcfult-10" value="+ setLastName(String): Void" style="text;align=left;verticalAlign=top;spacingLeft=4;spacingRight=4;overflow=hidden;rotatable=0;points=[[0,0.5],[1,0.5]];portConstraint=eastwest;rounded=0;shadow=0;html=0;" vertex="1" parent="zkfFHV4jXpPFQw0GAbJ--6">
          <mxGeometry y="300" width="200" height="32" as="geometry" />
        </mxCell>
        <mxCell id="dq-KWPvXL9YvY-tcfult-9" value="+ setStudentYear: String" style="text;align=left;verticalAlign=top;spacingLeft=4;spacingRight=4;overflow=hidden;rotatable=0;points=[[0,0.5],[1,0.5]];portConstraint=eastwest;rounded=0;shadow=0;html=0;" vertex="1" parent="zkfFHV4jXpPFQw0GAbJ--6">
          <mxGeometry y="332" width="200" height="26" as="geometry" />
        </mxCell>
        <mxCell id="KhpU_kcYNKZ85qFfXGZm-4" value="MathsStudent" style="swimlane;fontStyle=0;align=center;verticalAlign=top;childLayout=stackLayout;horizontal=1;startSize=26;horizontalStack=0;resizeParent=1;resizeLast=0;collapsible=1;marginBottom=0;rounded=0;shadow=0;strokeWidth=1;" vertex="1" parent="WIyWlLk6GJQsqaUBKTNV-1">
          <mxGeometry x="-230" y="519" width="220" height="120" as="geometry">
            <mxRectangle x="130" y="380" width="160" height="26" as="alternateBounds" />
          </mxGeometry>
        </mxCell>
        <mxCell id="KhpU_kcYNKZ85qFfXGZm-6" value="- grades : Integer Array" style="text;align=left;verticalAlign=top;spacingLeft=4;spacingRight=4;overflow=hidden;rotatable=0;points=[[0,0.5],[1,0.5]];portConstraint=eastwest;rounded=0;shadow=0;html=0;" vertex="1" parent="KhpU_kcYNKZ85qFfXGZm-4">
          <mxGeometry y="26" width="220" height="26" as="geometry" />
        </mxCell>
        <mxCell id="KhpU_kcYNKZ85qFfXGZm-7" value="" style="line;html=1;strokeWidth=1;align=left;verticalAlign=middle;spacingTop=-1;spacingLeft=3;spacingRight=3;rotatable=0;labelPosition=right;points=[];portConstraint=eastwest;" vertex="1" parent="KhpU_kcYNKZ85qFfXGZm-4">
          <mxGeometry y="52" width="220" height="8" as="geometry" />
        </mxCell>
        <mxCell id="KhpU_kcYNKZ85qFfXGZm-8" value="+ getGrades(): Integer Array" style="text;align=left;verticalAlign=top;spacingLeft=4;spacingRight=4;overflow=hidden;rotatable=0;points=[[0,0.5],[1,0.5]];portConstraint=eastwest;rounded=0;shadow=0;html=0;" vertex="1" parent="KhpU_kcYNKZ85qFfXGZm-4">
          <mxGeometry y="60" width="220" height="26" as="geometry" />
        </mxCell>
        <mxCell id="KhpU_kcYNKZ85qFfXGZm-11" value="+ setGrades(Integer Array): Void " style="text;align=left;verticalAlign=top;spacingLeft=4;spacingRight=4;overflow=hidden;rotatable=0;points=[[0,0.5],[1,0.5]];portConstraint=eastwest;rounded=0;shadow=0;html=0;" vertex="1" parent="KhpU_kcYNKZ85qFfXGZm-4">
          <mxGeometry y="86" width="220" height="26" as="geometry" />
        </mxCell>
        <mxCell id="KhpU_kcYNKZ85qFfXGZm-12" value="GeographyStudent" style="swimlane;fontStyle=0;align=center;verticalAlign=top;childLayout=stackLayout;horizontal=1;startSize=26;horizontalStack=0;resizeParent=1;resizeLast=0;collapsible=1;marginBottom=0;rounded=0;shadow=0;strokeWidth=1;" vertex="1" parent="WIyWlLk6GJQsqaUBKTNV-1">
          <mxGeometry x="-470" y="540" width="190" height="120" as="geometry">
            <mxRectangle x="130" y="380" width="160" height="26" as="alternateBounds" />
          </mxGeometry>
        </mxCell>
        <mxCell id="KhpU_kcYNKZ85qFfXGZm-13" value="- grades : Integer Array" style="text;align=left;verticalAlign=top;spacingLeft=4;spacingRight=4;overflow=hidden;rotatable=0;points=[[0,0.5],[1,0.5]];portConstraint=eastwest;" vertex="1" parent="KhpU_kcYNKZ85qFfXGZm-12">
          <mxGeometry y="26" width="190" height="26" as="geometry" />
        </mxCell>
        <mxCell id="KhpU_kcYNKZ85qFfXGZm-15" value="" style="line;html=1;strokeWidth=1;align=left;verticalAlign=middle;spacingTop=-1;spacingLeft=3;spacingRight=3;rotatable=0;labelPosition=right;points=[];portConstraint=eastwest;" vertex="1" parent="KhpU_kcYNKZ85qFfXGZm-12">
          <mxGeometry y="52" width="190" height="8" as="geometry" />
        </mxCell>
        <mxCell id="KhpU_kcYNKZ85qFfXGZm-16" value="+ getGrades: Integer Array" style="text;align=left;verticalAlign=top;spacingLeft=4;spacingRight=4;overflow=hidden;rotatable=0;points=[[0,0.5],[1,0.5]];portConstraint=eastwest;rounded=0;shadow=0;html=0;" vertex="1" parent="KhpU_kcYNKZ85qFfXGZm-12">
          <mxGeometry y="60" width="190" height="26" as="geometry" />
        </mxCell>
        <mxCell id="KhpU_kcYNKZ85qFfXGZm-19" value="+ setGrades(Array Integer): Void " style="text;align=left;verticalAlign=top;spacingLeft=4;spacingRight=4;overflow=hidden;rotatable=0;points=[[0,0.5],[1,0.5]];portConstraint=eastwest;rounded=0;shadow=0;html=0;" vertex="1" parent="KhpU_kcYNKZ85qFfXGZm-12">
          <mxGeometry y="86" width="190" height="26" as="geometry" />
        </mxCell>
        <mxCell id="dq-KWPvXL9YvY-tcfult-18" style="edgeStyle=orthogonalEdgeStyle;rounded=0;orthogonalLoop=1;jettySize=auto;html=1;exitX=0.5;exitY=0;exitDx=0;exitDy=0;endArrow=blockThin;endFill=0;entryX=0;entryY=0.5;entryDx=0;entryDy=0;endSize=16;startSize=16;" edge="1" parent="WIyWlLk6GJQsqaUBKTNV-1" source="KhpU_kcYNKZ85qFfXGZm-20" target="AZbB6S3Q3ucaZbMWuehh-62">
          <mxGeometry relative="1" as="geometry">
            <mxPoint x="-120" y="450" as="targetPoint" />
            <Array as="points">
              <mxPoint x="-380" y="289" />
            </Array>
          </mxGeometry>
        </mxCell>
        <mxCell id="KhpU_kcYNKZ85qFfXGZm-20" value="HistoryStudent" style="swimlane;fontStyle=0;align=center;verticalAlign=top;childLayout=stackLayout;horizontal=1;startSize=26;horizontalStack=0;resizeParent=1;resizeLast=0;collapsible=1;marginBottom=0;rounded=0;shadow=0;strokeWidth=1;" vertex="1" parent="WIyWlLk6GJQsqaUBKTNV-1">
          <mxGeometry x="-490" y="330" width="200" height="130" as="geometry">
            <mxRectangle x="130" y="380" width="160" height="26" as="alternateBounds" />
          </mxGeometry>
        </mxCell>
        <mxCell id="KhpU_kcYNKZ85qFfXGZm-22" value="- grades : Integer Array" style="text;align=left;verticalAlign=top;spacingLeft=4;spacingRight=4;overflow=hidden;rotatable=0;points=[[0,0.5],[1,0.5]];portConstraint=eastwest;rounded=0;shadow=0;html=0;" vertex="1" parent="KhpU_kcYNKZ85qFfXGZm-20">
          <mxGeometry y="26" width="200" height="26" as="geometry" />
        </mxCell>
        <mxCell id="KhpU_kcYNKZ85qFfXGZm-23" value="" style="line;html=1;strokeWidth=1;align=left;verticalAlign=middle;spacingTop=-1;spacingLeft=3;spacingRight=3;rotatable=0;labelPosition=right;points=[];portConstraint=eastwest;" vertex="1" parent="KhpU_kcYNKZ85qFfXGZm-20">
          <mxGeometry y="52" width="200" height="8" as="geometry" />
        </mxCell>
        <mxCell id="KhpU_kcYNKZ85qFfXGZm-24" value="+ getGrades(): Integer Array" style="text;align=left;verticalAlign=top;spacingLeft=4;spacingRight=4;overflow=hidden;rotatable=0;points=[[0,0.5],[1,0.5]];portConstraint=eastwest;rounded=0;shadow=0;html=0;" vertex="1" parent="KhpU_kcYNKZ85qFfXGZm-20">
          <mxGeometry y="60" width="200" height="26" as="geometry" />
        </mxCell>
        <mxCell id="KhpU_kcYNKZ85qFfXGZm-27" value="+ setGrades(Integer Array): Void " style="text;align=left;verticalAlign=top;spacingLeft=4;spacingRight=4;overflow=hidden;rotatable=0;points=[[0,0.5],[1,0.5]];portConstraint=eastwest;rounded=0;shadow=0;html=0;" vertex="1" parent="KhpU_kcYNKZ85qFfXGZm-20">
          <mxGeometry y="86" width="200" height="26" as="geometry" />
        </mxCell>
        <mxCell id="dq-KWPvXL9YvY-tcfult-17" style="edgeStyle=orthogonalEdgeStyle;rounded=0;orthogonalLoop=1;jettySize=auto;html=1;exitX=0.5;exitY=0;exitDx=0;exitDy=0;endArrow=none;endFill=0;" edge="1" parent="WIyWlLk6GJQsqaUBKTNV-1" source="KhpU_kcYNKZ85qFfXGZm-12">
          <mxGeometry relative="1" as="geometry">
            <mxPoint x="-120" y="500" as="targetPoint" />
            <Array as="points">
              <mxPoint x="-375" y="490" />
              <mxPoint x="-120" y="490" />
            </Array>
          </mxGeometry>
        </mxCell>
        <mxCell id="ezemyBAHLuJe-Fzqi9oF-0" value="Enums" style="swimlane;fontStyle=1;align=center;verticalAlign=top;childLayout=stackLayout;horizontal=1;startSize=26;horizontalStack=0;resizeParent=1;resizeParentMax=0;resizeLast=0;collapsible=1;marginBottom=0;whiteSpace=wrap;html=1;" vertex="1" parent="WIyWlLk6GJQsqaUBKTNV-1">
          <mxGeometry x="-540" y="60" width="260" height="60" as="geometry" />
        </mxCell>
        <mxCell id="ezemyBAHLuJe-Fzqi9oF-2" value="" style="line;strokeWidth=1;fillColor=none;align=left;verticalAlign=middle;spacingTop=-1;spacingLeft=3;spacingRight=3;rotatable=0;labelPosition=right;points=[];portConstraint=eastwest;strokeColor=inherit;" vertex="1" parent="ezemyBAHLuJe-Fzqi9oF-0">
          <mxGeometry y="26" width="260" height="8" as="geometry" />
        </mxCell>
        <mxCell id="ezemyBAHLuJe-Fzqi9oF-3" value="+ getGrade(int markAverage): String" style="text;strokeColor=none;fillColor=none;align=left;verticalAlign=top;spacingLeft=4;spacingRight=4;overflow=hidden;rotatable=0;points=[[0,0.5],[1,0.5]];portConstraint=eastwest;whiteSpace=wrap;html=1;" vertex="1" parent="ezemyBAHLuJe-Fzqi9oF-0">
          <mxGeometry y="34" width="260" height="26" as="geometry" />
        </mxCell>
        <mxCell id="1RqRPjYCyabtcYxF6e57-4" style="edgeStyle=orthogonalEdgeStyle;rounded=0;orthogonalLoop=1;jettySize=auto;html=1;entryX=-0.009;entryY=0.097;entryDx=0;entryDy=0;endArrow=none;endFill=0;startArrow=diamond;startFill=1;sourcePerimeterSpacing=16;targetPerimeterSpacing=16;endSize=16;startSize=16;entryPerimeter=0;" edge="1" parent="WIyWlLk6GJQsqaUBKTNV-1" target="AZbB6S3Q3ucaZbMWuehh-15">
          <mxGeometry relative="1" as="geometry">
            <mxPoint x="-917" y="417" as="sourcePoint" />
            <Array as="points">
              <mxPoint x="-917" y="526" />
              <mxPoint x="-1090" y="526" />
              <mxPoint x="-1090" y="743" />
            </Array>
            <mxPoint x="-1089.9999999999995" y="639.0000000000001" as="targetPoint" />
          </mxGeometry>
        </mxCell>
        <mxCell id="dxC3zt-33IW45c0xmvrj-0" value="1" style="edgeLabel;html=1;align=center;verticalAlign=middle;resizable=0;points=[];" connectable="0" vertex="1" parent="1RqRPjYCyabtcYxF6e57-4">
          <mxGeometry x="-0.7923" y="-2" relative="1" as="geometry">
            <mxPoint as="offset" />
          </mxGeometry>
        </mxCell>
        <mxCell id="dxC3zt-33IW45c0xmvrj-1" value="0..*" style="edgeLabel;html=1;align=center;verticalAlign=middle;resizable=0;points=[];" connectable="0" vertex="1" parent="1RqRPjYCyabtcYxF6e57-4">
          <mxGeometry x="0.7904" y="1" relative="1" as="geometry">
            <mxPoint as="offset" />
          </mxGeometry>
        </mxCell>
        <mxCell id="Txv5tXQt77rOtT-HXApR-0" value="DataProcessor" style="swimlane;fontStyle=0;align=center;verticalAlign=top;childLayout=stackLayout;horizontal=1;startSize=26;horizontalStack=0;resizeParent=1;resizeLast=0;collapsible=1;marginBottom=0;rounded=0;shadow=0;strokeWidth=1;" vertex="1" parent="WIyWlLk6GJQsqaUBKTNV-1">
          <mxGeometry x="-1143" y="60" width="450" height="352" as="geometry">
            <mxRectangle x="130" y="380" width="160" height="26" as="alternateBounds" />
          </mxGeometry>
        </mxCell>
        <mxCell id="yTLfxomnK6KOBL3jv8wE-2" value="- history : History" style="text;align=left;verticalAlign=top;spacingLeft=4;spacingRight=4;overflow=hidden;rotatable=0;points=[[0,0.5],[1,0.5]];portConstraint=eastwest;rounded=0;shadow=0;html=0;" vertex="1" parent="Txv5tXQt77rOtT-HXApR-0">
          <mxGeometry y="26" width="450" height="26" as="geometry" />
        </mxCell>
        <mxCell id="yTLfxomnK6KOBL3jv8wE-3" value="- maths : Maths" style="text;align=left;verticalAlign=top;spacingLeft=4;spacingRight=4;overflow=hidden;rotatable=0;points=[[0,0.5],[1,0.5]];portConstraint=eastwest;rounded=0;shadow=0;html=0;" vertex="1" parent="Txv5tXQt77rOtT-HXApR-0">
          <mxGeometry y="52" width="450" height="26" as="geometry" />
        </mxCell>
        <mxCell id="yTLfxomnK6KOBL3jv8wE-0" value="- geography : Geography" style="text;align=left;verticalAlign=top;spacingLeft=4;spacingRight=4;overflow=hidden;rotatable=0;points=[[0,0.5],[1,0.5]];portConstraint=eastwest;rounded=0;shadow=0;html=0;" vertex="1" parent="Txv5tXQt77rOtT-HXApR-0">
          <mxGeometry y="78" width="450" height="26" as="geometry" />
        </mxCell>
        <mxCell id="Txv5tXQt77rOtT-HXApR-2" value="" style="line;html=1;strokeWidth=1;align=left;verticalAlign=middle;spacingTop=-1;spacingLeft=3;spacingRight=3;rotatable=0;labelPosition=right;points=[];portConstraint=eastwest;" vertex="1" parent="Txv5tXQt77rOtT-HXApR-0">
          <mxGeometry y="104" width="450" height="8" as="geometry" />
        </mxCell>
        <mxCell id="yTLfxomnK6KOBL3jv8wE-4" value="+ getFilteredStudentData(String filepath):&amp;nbsp;ArrayList&amp;lt;List&amp;lt;List&amp;lt;String&amp;gt;&amp;gt;&amp;gt;" style="text;strokeColor=none;fillColor=none;align=left;verticalAlign=top;spacingLeft=4;spacingRight=4;overflow=hidden;rotatable=0;points=[[0,0.5],[1,0.5]];portConstraint=eastwest;whiteSpace=wrap;html=1;" vertex="1" parent="Txv5tXQt77rOtT-HXApR-0">
          <mxGeometry y="112" width="450" height="28" as="geometry" />
        </mxCell>
        <mxCell id="yTLfxomnK6KOBL3jv8wE-5" value="+ processFilteredData(ArrayList&amp;lt;List&amp;lt;List&amp;lt;String&amp;gt;&amp;gt;&amp;gt;&amp;nbsp;filteredStudentData):&amp;nbsp;boolean" style="text;strokeColor=none;fillColor=none;align=left;verticalAlign=top;spacingLeft=4;spacingRight=4;overflow=hidden;rotatable=0;points=[[0,0.5],[1,0.5]];portConstraint=eastwest;whiteSpace=wrap;html=1;" vertex="1" parent="Txv5tXQt77rOtT-HXApR-0">
          <mxGeometry y="140" width="450" height="30" as="geometry" />
        </mxCell>
        <mxCell id="yTLfxomnK6KOBL3jv8wE-6" value="+ getMaths(): Maths" style="text;strokeColor=none;fillColor=none;align=left;verticalAlign=top;spacingLeft=4;spacingRight=4;overflow=hidden;rotatable=0;points=[[0,0.5],[1,0.5]];portConstraint=eastwest;whiteSpace=wrap;html=1;" vertex="1" parent="Txv5tXQt77rOtT-HXApR-0">
          <mxGeometry y="170" width="450" height="32" as="geometry" />
        </mxCell>
        <mxCell id="yTLfxomnK6KOBL3jv8wE-7" value="+ getHistory(): History" style="text;strokeColor=none;fillColor=none;align=left;verticalAlign=top;spacingLeft=4;spacingRight=4;overflow=hidden;rotatable=0;points=[[0,0.5],[1,0.5]];portConstraint=eastwest;whiteSpace=wrap;html=1;" vertex="1" parent="Txv5tXQt77rOtT-HXApR-0">
          <mxGeometry y="202" width="450" height="30" as="geometry" />
        </mxCell>
        <mxCell id="yTLfxomnK6KOBL3jv8wE-8" value="+ getGeography(): Geography" style="text;strokeColor=none;fillColor=none;align=left;verticalAlign=top;spacingLeft=4;spacingRight=4;overflow=hidden;rotatable=0;points=[[0,0.5],[1,0.5]];portConstraint=eastwest;whiteSpace=wrap;html=1;" vertex="1" parent="Txv5tXQt77rOtT-HXApR-0">
          <mxGeometry y="232" width="450" height="30" as="geometry" />
        </mxCell>
        <mxCell id="yTLfxomnK6KOBL3jv8wE-9" value="+ setGeography(Geography geography):void" style="text;strokeColor=none;fillColor=none;align=left;verticalAlign=top;spacingLeft=4;spacingRight=4;overflow=hidden;rotatable=0;points=[[0,0.5],[1,0.5]];portConstraint=eastwest;whiteSpace=wrap;html=1;" vertex="1" parent="Txv5tXQt77rOtT-HXApR-0">
          <mxGeometry y="262" width="450" height="30" as="geometry" />
        </mxCell>
        <mxCell id="yTLfxomnK6KOBL3jv8wE-10" value="+ setMaths(Maths maths):void" style="text;strokeColor=none;fillColor=none;align=left;verticalAlign=top;spacingLeft=4;spacingRight=4;overflow=hidden;rotatable=0;points=[[0,0.5],[1,0.5]];portConstraint=eastwest;whiteSpace=wrap;html=1;" vertex="1" parent="Txv5tXQt77rOtT-HXApR-0">
          <mxGeometry y="292" width="450" height="30" as="geometry" />
        </mxCell>
        <mxCell id="dq-KWPvXL9YvY-tcfult-16" value="+ setHistory(History history):void" style="text;strokeColor=none;fillColor=none;align=left;verticalAlign=top;spacingLeft=4;spacingRight=4;overflow=hidden;rotatable=0;points=[[0,0.5],[1,0.5]];portConstraint=eastwest;whiteSpace=wrap;html=1;" vertex="1" parent="Txv5tXQt77rOtT-HXApR-0">
          <mxGeometry y="322" width="450" height="30" as="geometry" />
        </mxCell>
        <mxCell id="yTLfxomnK6KOBL3jv8wE-11" value="GuiController" style="swimlane;fontStyle=1;align=center;verticalAlign=top;childLayout=stackLayout;horizontal=1;startSize=26;horizontalStack=0;resizeParent=1;resizeParentMax=0;resizeLast=0;collapsible=1;marginBottom=0;whiteSpace=wrap;html=1;" vertex="1" parent="WIyWlLk6GJQsqaUBKTNV-1">
          <mxGeometry x="-1620" y="60" width="310" height="190" as="geometry" />
        </mxCell>
        <mxCell id="yTLfxomnK6KOBL3jv8wE-13" value="" style="line;strokeWidth=1;fillColor=none;align=left;verticalAlign=middle;spacingTop=-1;spacingLeft=3;spacingRight=3;rotatable=0;labelPosition=right;points=[];portConstraint=eastwest;strokeColor=inherit;" vertex="1" parent="yTLfxomnK6KOBL3jv8wE-11">
          <mxGeometry y="26" width="310" height="8" as="geometry" />
        </mxCell>
        <mxCell id="AZbB6S3Q3ucaZbMWuehh-50" value="- takeInput(HashMap&amp;lt;String,String&amp;gt; options):String" style="text;strokeColor=none;fillColor=none;align=left;verticalAlign=top;spacingLeft=4;spacingRight=4;overflow=hidden;rotatable=0;points=[[0,0.5],[1,0.5]];portConstraint=eastwest;whiteSpace=wrap;html=1;" vertex="1" parent="yTLfxomnK6KOBL3jv8wE-11">
          <mxGeometry y="34" width="310" height="26" as="geometry" />
        </mxCell>
        <mxCell id="yTLfxomnK6KOBL3jv8wE-15" value="+ selectASubject():String" style="text;strokeColor=none;fillColor=none;align=left;verticalAlign=top;spacingLeft=4;spacingRight=4;overflow=hidden;rotatable=0;points=[[0,0.5],[1,0.5]];portConstraint=eastwest;whiteSpace=wrap;html=1;" vertex="1" parent="yTLfxomnK6KOBL3jv8wE-11">
          <mxGeometry y="60" width="310" height="26" as="geometry" />
        </mxCell>
        <mxCell id="AZbB6S3Q3ucaZbMWuehh-54" value="+ selectAYear():Int" style="text;strokeColor=none;fillColor=none;align=left;verticalAlign=top;spacingLeft=4;spacingRight=4;overflow=hidden;rotatable=0;points=[[0,0.5],[1,0.5]];portConstraint=eastwest;whiteSpace=wrap;html=1;" vertex="1" parent="yTLfxomnK6KOBL3jv8wE-11">
          <mxGeometry y="86" width="310" height="26" as="geometry" />
        </mxCell>
        <mxCell id="AZbB6S3Q3ucaZbMWuehh-55" value="+ flagStudentsWhoFailedAModule():boolean" style="text;strokeColor=none;fillColor=none;align=left;verticalAlign=top;spacingLeft=4;spacingRight=4;overflow=hidden;rotatable=0;points=[[0,0.5],[1,0.5]];portConstraint=eastwest;whiteSpace=wrap;html=1;" vertex="1" parent="yTLfxomnK6KOBL3jv8wE-11">
          <mxGeometry y="112" width="310" height="26" as="geometry" />
        </mxCell>
        <mxCell id="AZbB6S3Q3ucaZbMWuehh-56" value="+&amp;nbsp;printResultsInDescendingOrder():boolean" style="text;strokeColor=none;fillColor=none;align=left;verticalAlign=top;spacingLeft=4;spacingRight=4;overflow=hidden;rotatable=0;points=[[0,0.5],[1,0.5]];portConstraint=eastwest;whiteSpace=wrap;html=1;" vertex="1" parent="yTLfxomnK6KOBL3jv8wE-11">
          <mxGeometry y="138" width="310" height="26" as="geometry" />
        </mxCell>
        <mxCell id="yTLfxomnK6KOBL3jv8wE-14" value="+&amp;nbsp;printMarksInGradeFormat():boolean" style="text;strokeColor=none;fillColor=none;align=left;verticalAlign=top;spacingLeft=4;spacingRight=4;overflow=hidden;rotatable=0;points=[[0,0.5],[1,0.5]];portConstraint=eastwest;whiteSpace=wrap;html=1;" vertex="1" parent="yTLfxomnK6KOBL3jv8wE-11">
          <mxGeometry y="164" width="310" height="26" as="geometry" />
        </mxCell>
        <mxCell id="AZbB6S3Q3ucaZbMWuehh-12" value="Subject" style="swimlane;fontStyle=1;align=center;verticalAlign=top;childLayout=stackLayout;horizontal=1;startSize=26;horizontalStack=0;resizeParent=1;resizeParentMax=0;resizeLast=0;collapsible=1;marginBottom=0;whiteSpace=wrap;html=1;" vertex="1" parent="WIyWlLk6GJQsqaUBKTNV-1">
          <mxGeometry x="-1010" y="680" width="200" height="112" as="geometry" />
        </mxCell>
        <mxCell id="AZbB6S3Q3ucaZbMWuehh-13" value="+ subject: String" style="text;strokeColor=none;fillColor=none;align=left;verticalAlign=top;spacingLeft=4;spacingRight=4;overflow=hidden;rotatable=0;points=[[0,0.5],[1,0.5]];portConstraint=eastwest;whiteSpace=wrap;html=1;" vertex="1" parent="AZbB6S3Q3ucaZbMWuehh-12">
          <mxGeometry y="26" width="200" height="26" as="geometry" />
        </mxCell>
        <mxCell id="AZbB6S3Q3ucaZbMWuehh-14" value="" style="line;strokeWidth=1;fillColor=none;align=left;verticalAlign=middle;spacingTop=-1;spacingLeft=3;spacingRight=3;rotatable=0;labelPosition=right;points=[];portConstraint=eastwest;strokeColor=inherit;" vertex="1" parent="AZbB6S3Q3ucaZbMWuehh-12">
          <mxGeometry y="52" width="200" height="8" as="geometry" />
        </mxCell>
        <mxCell id="AZbB6S3Q3ucaZbMWuehh-15" value="+ getSubject(): String" style="text;strokeColor=none;fillColor=none;align=left;verticalAlign=top;spacingLeft=4;spacingRight=4;overflow=hidden;rotatable=0;points=[[0,0.5],[1,0.5]];portConstraint=eastwest;whiteSpace=wrap;html=1;" vertex="1" parent="AZbB6S3Q3ucaZbMWuehh-12">
          <mxGeometry y="60" width="200" height="26" as="geometry" />
        </mxCell>
        <mxCell id="AZbB6S3Q3ucaZbMWuehh-28" value="+ setSubject(String subject): Void" style="text;strokeColor=none;fillColor=none;align=left;verticalAlign=top;spacingLeft=4;spacingRight=4;overflow=hidden;rotatable=0;points=[[0,0.5],[1,0.5]];portConstraint=eastwest;whiteSpace=wrap;html=1;" vertex="1" parent="AZbB6S3Q3ucaZbMWuehh-12">
          <mxGeometry y="86" width="200" height="26" as="geometry" />
        </mxCell>
        <mxCell id="AZbB6S3Q3ucaZbMWuehh-16" value="Maths" style="swimlane;fontStyle=1;align=center;verticalAlign=top;childLayout=stackLayout;horizontal=1;startSize=26;horizontalStack=0;resizeParent=1;resizeParentMax=0;resizeLast=0;collapsible=1;marginBottom=0;whiteSpace=wrap;html=1;" vertex="1" parent="WIyWlLk6GJQsqaUBKTNV-1">
          <mxGeometry x="-1650" y="880" width="470" height="216" as="geometry" />
        </mxCell>
        <mxCell id="AZbB6S3Q3ucaZbMWuehh-17" value="+ students:&amp;nbsp;List&amp;lt;MathsStudent&amp;gt;" style="text;strokeColor=none;fillColor=none;align=left;verticalAlign=top;spacingLeft=4;spacingRight=4;overflow=hidden;rotatable=0;points=[[0,0.5],[1,0.5]];portConstraint=eastwest;whiteSpace=wrap;html=1;" vertex="1" parent="AZbB6S3Q3ucaZbMWuehh-16">
          <mxGeometry y="26" width="470" height="26" as="geometry" />
        </mxCell>
        <mxCell id="AZbB6S3Q3ucaZbMWuehh-18" value="" style="line;strokeWidth=1;fillColor=none;align=left;verticalAlign=middle;spacingTop=-1;spacingLeft=3;spacingRight=3;rotatable=0;labelPosition=right;points=[];portConstraint=eastwest;strokeColor=inherit;" vertex="1" parent="AZbB6S3Q3ucaZbMWuehh-16">
          <mxGeometry y="52" width="470" height="8" as="geometry" />
        </mxCell>
        <mxCell id="AZbB6S3Q3ucaZbMWuehh-51" value="+ getStudents(): List&amp;lt;MathsStudent&amp;gt;" style="text;strokeColor=none;fillColor=none;align=left;verticalAlign=top;spacingLeft=4;spacingRight=4;overflow=hidden;rotatable=0;points=[[0,0.5],[1,0.5]];portConstraint=eastwest;whiteSpace=wrap;html=1;" vertex="1" parent="AZbB6S3Q3ucaZbMWuehh-16">
          <mxGeometry y="60" width="470" height="26" as="geometry" />
        </mxCell>
        <mxCell id="AZbB6S3Q3ucaZbMWuehh-35" value="+ setStudents(List&amp;lt;MathsStudent&amp;gt; students): Void" style="text;strokeColor=none;fillColor=none;align=left;verticalAlign=top;spacingLeft=4;spacingRight=4;overflow=hidden;rotatable=0;points=[[0,0.5],[1,0.5]];portConstraint=eastwest;whiteSpace=wrap;html=1;" vertex="1" parent="AZbB6S3Q3ucaZbMWuehh-16">
          <mxGeometry y="86" width="470" height="26" as="geometry" />
        </mxCell>
        <mxCell id="AZbB6S3Q3ucaZbMWuehh-57" value="+ addStudent(MathsStudent student): Void" style="text;strokeColor=none;fillColor=none;align=left;verticalAlign=top;spacingLeft=4;spacingRight=4;overflow=hidden;rotatable=0;points=[[0,0.5],[1,0.5]];portConstraint=eastwest;whiteSpace=wrap;html=1;" vertex="1" parent="AZbB6S3Q3ucaZbMWuehh-16">
          <mxGeometry y="112" width="470" height="26" as="geometry" />
        </mxCell>
        <mxCell id="vsY4UOq4RgM0MMtYdXaH-0" value="+ filterStudentsFromYear(int year): List&amp;lt;MathsStudent&amp;gt;" style="text;strokeColor=none;fillColor=none;align=left;verticalAlign=top;spacingLeft=4;spacingRight=4;overflow=hidden;rotatable=0;points=[[0,0.5],[1,0.5]];portConstraint=eastwest;whiteSpace=wrap;html=1;" vertex="1" parent="AZbB6S3Q3ucaZbMWuehh-16">
          <mxGeometry y="138" width="470" height="26" as="geometry" />
        </mxCell>
        <mxCell id="vsY4UOq4RgM0MMtYdXaH-1" value="+&amp;nbsp;returnStudentsInResultDescendingOrder(List&amp;lt;MathsStudent&amp;gt;): List&amp;lt;MathsStudent&amp;gt;" style="text;strokeColor=none;fillColor=none;align=left;verticalAlign=top;spacingLeft=4;spacingRight=4;overflow=hidden;rotatable=0;points=[[0,0.5],[1,0.5]];portConstraint=eastwest;whiteSpace=wrap;html=1;" vertex="1" parent="AZbB6S3Q3ucaZbMWuehh-16">
          <mxGeometry y="164" width="470" height="26" as="geometry" />
        </mxCell>
        <mxCell id="AZbB6S3Q3ucaZbMWuehh-19" value="+&amp;nbsp;returnStudentsInAlphabeticalOrder(List&amp;lt;MathsStudent&amp;gt;): List&amp;lt;MathsStudent&amp;gt;" style="text;strokeColor=none;fillColor=none;align=left;verticalAlign=top;spacingLeft=4;spacingRight=4;overflow=hidden;rotatable=0;points=[[0,0.5],[1,0.5]];portConstraint=eastwest;whiteSpace=wrap;html=1;" vertex="1" parent="AZbB6S3Q3ucaZbMWuehh-16">
          <mxGeometry y="190" width="470" height="26" as="geometry" />
        </mxCell>
        <mxCell id="AZbB6S3Q3ucaZbMWuehh-46" style="edgeStyle=orthogonalEdgeStyle;rounded=0;orthogonalLoop=1;jettySize=auto;html=1;exitX=0.475;exitY=0.006;exitDx=0;exitDy=0;entryX=0.503;entryY=0.962;entryDx=0;entryDy=0;entryPerimeter=0;endArrow=block;endFill=0;endSize=12;exitPerimeter=0;" edge="1" parent="WIyWlLk6GJQsqaUBKTNV-1" source="vsY4UOq4RgM0MMtYdXaH-2" target="AZbB6S3Q3ucaZbMWuehh-28">
          <mxGeometry relative="1" as="geometry">
            <mxPoint x="-1070" y="860.8600000000001" as="sourcePoint" />
            <Array as="points">
              <mxPoint x="-910" y="881" />
              <mxPoint x="-910" y="791" />
            </Array>
          </mxGeometry>
        </mxCell>
        <mxCell id="AZbB6S3Q3ucaZbMWuehh-47" style="edgeStyle=orthogonalEdgeStyle;rounded=0;orthogonalLoop=1;jettySize=auto;html=1;entryX=0.503;entryY=1;entryDx=0;entryDy=0;entryPerimeter=0;endArrow=block;endFill=0;endSize=12;" edge="1" parent="WIyWlLk6GJQsqaUBKTNV-1" source="vsY4UOq4RgM0MMtYdXaH-11" target="AZbB6S3Q3ucaZbMWuehh-28">
          <mxGeometry relative="1" as="geometry">
            <mxPoint x="-620" y="860.8600000000001" as="sourcePoint" />
          </mxGeometry>
        </mxCell>
        <mxCell id="AZbB6S3Q3ucaZbMWuehh-49" style="edgeStyle=orthogonalEdgeStyle;rounded=0;orthogonalLoop=1;jettySize=auto;html=1;exitX=0.5;exitY=0;exitDx=0;exitDy=0;entryX=0.503;entryY=1.038;entryDx=0;entryDy=0;entryPerimeter=0;endArrow=block;endFill=0;endSize=12;" edge="1" parent="WIyWlLk6GJQsqaUBKTNV-1" source="AZbB6S3Q3ucaZbMWuehh-16" target="AZbB6S3Q3ucaZbMWuehh-28">
          <mxGeometry relative="1" as="geometry" />
        </mxCell>
        <mxCell id="WldJ7dlKC1tFtTfkaXN--0" style="edgeStyle=orthogonalEdgeStyle;rounded=0;orthogonalLoop=1;jettySize=auto;html=1;exitX=1;exitY=0.5;exitDx=0;exitDy=0;endArrow=none;endFill=0;endSize=16;startArrow=diamond;startFill=1;targetPerimeterSpacing=16;sourcePerimeterSpacing=16;startSize=16;" edge="1" parent="WIyWlLk6GJQsqaUBKTNV-1" source="AZbB6S3Q3ucaZbMWuehh-15">
          <mxGeometry relative="1" as="geometry">
            <mxPoint x="-250" y="240" as="targetPoint" />
            <Array as="points">
              <mxPoint x="-540" y="746" />
              <mxPoint x="-540" y="240" />
            </Array>
          </mxGeometry>
        </mxCell>
        <mxCell id="WldJ7dlKC1tFtTfkaXN--1" value="0..*" style="edgeLabel;html=1;align=center;verticalAlign=middle;resizable=0;points=[];" connectable="0" vertex="1" parent="WldJ7dlKC1tFtTfkaXN--0">
          <mxGeometry x="0.0781" y="-1" relative="1" as="geometry">
            <mxPoint x="249" y="-289" as="offset" />
          </mxGeometry>
        </mxCell>
        <mxCell id="WldJ7dlKC1tFtTfkaXN--2" value="1" style="edgeLabel;html=1;align=center;verticalAlign=middle;resizable=0;points=[];" connectable="0" vertex="1" parent="WldJ7dlKC1tFtTfkaXN--0">
          <mxGeometry x="-0.9167" y="-2" relative="1" as="geometry">
            <mxPoint as="offset" />
          </mxGeometry>
        </mxCell>
        <mxCell id="1RqRPjYCyabtcYxF6e57-0" style="edgeStyle=orthogonalEdgeStyle;rounded=0;orthogonalLoop=1;jettySize=auto;html=1;exitX=1;exitY=0.5;exitDx=0;exitDy=0;endArrow=none;endFill=0;" edge="1" parent="WIyWlLk6GJQsqaUBKTNV-1" source="yTLfxomnK6KOBL3jv8wE-2">
          <mxGeometry relative="1" as="geometry">
            <mxPoint x="-543" y="98" as="targetPoint" />
          </mxGeometry>
        </mxCell>
        <mxCell id="1RqRPjYCyabtcYxF6e57-3" style="edgeStyle=orthogonalEdgeStyle;rounded=0;orthogonalLoop=1;jettySize=auto;html=1;exitX=1;exitY=0.5;exitDx=0;exitDy=0;entryX=-0.006;entryY=-0.143;entryDx=0;entryDy=0;entryPerimeter=0;endArrow=none;endFill=0;" edge="1" parent="WIyWlLk6GJQsqaUBKTNV-1" source="AZbB6S3Q3ucaZbMWuehh-50" target="yTLfxomnK6KOBL3jv8wE-3">
          <mxGeometry relative="1" as="geometry">
            <Array as="points">
              <mxPoint x="-1226" y="108" />
            </Array>
          </mxGeometry>
        </mxCell>
        <mxCell id="1RqRPjYCyabtcYxF6e57-5" style="edgeStyle=orthogonalEdgeStyle;rounded=0;orthogonalLoop=1;jettySize=auto;html=1;exitX=0.5;exitY=0;exitDx=0;exitDy=0;entryX=0.553;entryY=1;entryDx=0;entryDy=0;entryPerimeter=0;endArrow=block;endFill=0;startSize=16;endSize=16;" edge="1" parent="WIyWlLk6GJQsqaUBKTNV-1" source="KhpU_kcYNKZ85qFfXGZm-4" target="dq-KWPvXL9YvY-tcfult-9">
          <mxGeometry relative="1" as="geometry">
            <Array as="points">
              <mxPoint x="-119" y="440" />
              <mxPoint x="-119" y="440" />
            </Array>
          </mxGeometry>
        </mxCell>
        <mxCell id="vsY4UOq4RgM0MMtYdXaH-2" value="History" style="swimlane;fontStyle=1;align=center;verticalAlign=top;childLayout=stackLayout;horizontal=1;startSize=26;horizontalStack=0;resizeParent=1;resizeParentMax=0;resizeLast=0;collapsible=1;marginBottom=0;whiteSpace=wrap;html=1;" vertex="1" parent="WIyWlLk6GJQsqaUBKTNV-1">
          <mxGeometry x="-1163" y="880" width="513" height="216" as="geometry" />
        </mxCell>
        <mxCell id="vsY4UOq4RgM0MMtYdXaH-3" value="+ students:&amp;nbsp;List&amp;lt;HistoryStudent&amp;gt;" style="text;strokeColor=none;fillColor=none;align=left;verticalAlign=top;spacingLeft=4;spacingRight=4;overflow=hidden;rotatable=0;points=[[0,0.5],[1,0.5]];portConstraint=eastwest;whiteSpace=wrap;html=1;" vertex="1" parent="vsY4UOq4RgM0MMtYdXaH-2">
          <mxGeometry y="26" width="513" height="26" as="geometry" />
        </mxCell>
        <mxCell id="vsY4UOq4RgM0MMtYdXaH-4" value="" style="line;strokeWidth=1;fillColor=none;align=left;verticalAlign=middle;spacingTop=-1;spacingLeft=3;spacingRight=3;rotatable=0;labelPosition=right;points=[];portConstraint=eastwest;strokeColor=inherit;" vertex="1" parent="vsY4UOq4RgM0MMtYdXaH-2">
          <mxGeometry y="52" width="513" height="8" as="geometry" />
        </mxCell>
        <mxCell id="vsY4UOq4RgM0MMtYdXaH-5" value="+ getStudents(): List&amp;lt;&amp;nbsp;HistoryStudent &amp;gt;" style="text;strokeColor=none;fillColor=none;align=left;verticalAlign=top;spacingLeft=4;spacingRight=4;overflow=hidden;rotatable=0;points=[[0,0.5],[1,0.5]];portConstraint=eastwest;whiteSpace=wrap;html=1;" vertex="1" parent="vsY4UOq4RgM0MMtYdXaH-2">
          <mxGeometry y="60" width="513" height="26" as="geometry" />
        </mxCell>
        <mxCell id="vsY4UOq4RgM0MMtYdXaH-6" value="+ setStudents(List&amp;lt;&amp;nbsp;HistoryStudent &amp;gt; students): Void" style="text;strokeColor=none;fillColor=none;align=left;verticalAlign=top;spacingLeft=4;spacingRight=4;overflow=hidden;rotatable=0;points=[[0,0.5],[1,0.5]];portConstraint=eastwest;whiteSpace=wrap;html=1;" vertex="1" parent="vsY4UOq4RgM0MMtYdXaH-2">
          <mxGeometry y="86" width="513" height="26" as="geometry" />
        </mxCell>
        <mxCell id="vsY4UOq4RgM0MMtYdXaH-7" value="+ addStudent(HistoryStudent&amp;nbsp;student): Void" style="text;strokeColor=none;fillColor=none;align=left;verticalAlign=top;spacingLeft=4;spacingRight=4;overflow=hidden;rotatable=0;points=[[0,0.5],[1,0.5]];portConstraint=eastwest;whiteSpace=wrap;html=1;" vertex="1" parent="vsY4UOq4RgM0MMtYdXaH-2">
          <mxGeometry y="112" width="513" height="26" as="geometry" />
        </mxCell>
        <mxCell id="vsY4UOq4RgM0MMtYdXaH-8" value="+ filterStudentsFromYear(int year): List&amp;lt;&amp;nbsp;HistoryStudent &amp;gt;" style="text;strokeColor=none;fillColor=none;align=left;verticalAlign=top;spacingLeft=4;spacingRight=4;overflow=hidden;rotatable=0;points=[[0,0.5],[1,0.5]];portConstraint=eastwest;whiteSpace=wrap;html=1;" vertex="1" parent="vsY4UOq4RgM0MMtYdXaH-2">
          <mxGeometry y="138" width="513" height="26" as="geometry" />
        </mxCell>
        <mxCell id="vsY4UOq4RgM0MMtYdXaH-9" value="+&amp;nbsp;returnStudentsInResultDescendingOrder(List&amp;lt;&amp;nbsp;HistoryStudent &amp;gt;): List&amp;lt;&amp;nbsp;HistoryStudent &amp;gt;" style="text;strokeColor=none;fillColor=none;align=left;verticalAlign=top;spacingLeft=4;spacingRight=4;overflow=hidden;rotatable=0;points=[[0,0.5],[1,0.5]];portConstraint=eastwest;whiteSpace=wrap;html=1;" vertex="1" parent="vsY4UOq4RgM0MMtYdXaH-2">
          <mxGeometry y="164" width="513" height="26" as="geometry" />
        </mxCell>
        <mxCell id="vsY4UOq4RgM0MMtYdXaH-10" value="+&amp;nbsp;returnStudentsInAlphabeticalOrder(List&amp;lt;&amp;nbsp;HistoryStudent &amp;gt;): List&amp;lt;&amp;nbsp;HistoryStudent &amp;gt;" style="text;strokeColor=none;fillColor=none;align=left;verticalAlign=top;spacingLeft=4;spacingRight=4;overflow=hidden;rotatable=0;points=[[0,0.5],[1,0.5]];portConstraint=eastwest;whiteSpace=wrap;html=1;" vertex="1" parent="vsY4UOq4RgM0MMtYdXaH-2">
          <mxGeometry y="190" width="513" height="26" as="geometry" />
        </mxCell>
        <mxCell id="vsY4UOq4RgM0MMtYdXaH-11" value="Geography" style="swimlane;fontStyle=1;align=center;verticalAlign=top;childLayout=stackLayout;horizontal=1;startSize=26;horizontalStack=0;resizeParent=1;resizeParentMax=0;resizeLast=0;collapsible=1;marginBottom=0;whiteSpace=wrap;html=1;" vertex="1" parent="WIyWlLk6GJQsqaUBKTNV-1">
          <mxGeometry x="-625" y="880" width="565" height="216" as="geometry" />
        </mxCell>
        <mxCell id="vsY4UOq4RgM0MMtYdXaH-12" value="+ students:&amp;nbsp;List&amp;lt;GeographyStudent&amp;gt;" style="text;strokeColor=none;fillColor=none;align=left;verticalAlign=top;spacingLeft=4;spacingRight=4;overflow=hidden;rotatable=0;points=[[0,0.5],[1,0.5]];portConstraint=eastwest;whiteSpace=wrap;html=1;" vertex="1" parent="vsY4UOq4RgM0MMtYdXaH-11">
          <mxGeometry y="26" width="565" height="26" as="geometry" />
        </mxCell>
        <mxCell id="vsY4UOq4RgM0MMtYdXaH-13" value="" style="line;strokeWidth=1;fillColor=none;align=left;verticalAlign=middle;spacingTop=-1;spacingLeft=3;spacingRight=3;rotatable=0;labelPosition=right;points=[];portConstraint=eastwest;strokeColor=inherit;" vertex="1" parent="vsY4UOq4RgM0MMtYdXaH-11">
          <mxGeometry y="52" width="565" height="8" as="geometry" />
        </mxCell>
        <mxCell id="vsY4UOq4RgM0MMtYdXaH-14" value="+ getStudents(): List&amp;lt;&amp;nbsp;GeographyStudent &amp;gt;" style="text;strokeColor=none;fillColor=none;align=left;verticalAlign=top;spacingLeft=4;spacingRight=4;overflow=hidden;rotatable=0;points=[[0,0.5],[1,0.5]];portConstraint=eastwest;whiteSpace=wrap;html=1;" vertex="1" parent="vsY4UOq4RgM0MMtYdXaH-11">
          <mxGeometry y="60" width="565" height="26" as="geometry" />
        </mxCell>
        <mxCell id="vsY4UOq4RgM0MMtYdXaH-15" value="+ setStudents(List&amp;lt;&amp;nbsp;GeographyStudent &amp;gt; students): Void" style="text;strokeColor=none;fillColor=none;align=left;verticalAlign=top;spacingLeft=4;spacingRight=4;overflow=hidden;rotatable=0;points=[[0,0.5],[1,0.5]];portConstraint=eastwest;whiteSpace=wrap;html=1;" vertex="1" parent="vsY4UOq4RgM0MMtYdXaH-11">
          <mxGeometry y="86" width="565" height="26" as="geometry" />
        </mxCell>
        <mxCell id="vsY4UOq4RgM0MMtYdXaH-16" value="+ addStudent(GeographyStudent&amp;nbsp;student): Void" style="text;strokeColor=none;fillColor=none;align=left;verticalAlign=top;spacingLeft=4;spacingRight=4;overflow=hidden;rotatable=0;points=[[0,0.5],[1,0.5]];portConstraint=eastwest;whiteSpace=wrap;html=1;" vertex="1" parent="vsY4UOq4RgM0MMtYdXaH-11">
          <mxGeometry y="112" width="565" height="26" as="geometry" />
        </mxCell>
        <mxCell id="vsY4UOq4RgM0MMtYdXaH-17" value="+ filterStudentsFromYear(int year): List&amp;lt;&amp;nbsp;GeographyStudent &amp;gt;" style="text;strokeColor=none;fillColor=none;align=left;verticalAlign=top;spacingLeft=4;spacingRight=4;overflow=hidden;rotatable=0;points=[[0,0.5],[1,0.5]];portConstraint=eastwest;whiteSpace=wrap;html=1;" vertex="1" parent="vsY4UOq4RgM0MMtYdXaH-11">
          <mxGeometry y="138" width="565" height="26" as="geometry" />
        </mxCell>
        <mxCell id="vsY4UOq4RgM0MMtYdXaH-18" value="+&amp;nbsp;returnStudentsInResultDescendingOrder(List&amp;lt;&amp;nbsp;GeographyStudent &amp;gt;): List&amp;lt;&amp;nbsp;GeographyStudent &amp;gt;" style="text;strokeColor=none;fillColor=none;align=left;verticalAlign=top;spacingLeft=4;spacingRight=4;overflow=hidden;rotatable=0;points=[[0,0.5],[1,0.5]];portConstraint=eastwest;whiteSpace=wrap;html=1;" vertex="1" parent="vsY4UOq4RgM0MMtYdXaH-11">
          <mxGeometry y="164" width="565" height="26" as="geometry" />
        </mxCell>
        <mxCell id="vsY4UOq4RgM0MMtYdXaH-19" value="+&amp;nbsp;returnStudentsInAlphabeticalOrder(List&amp;lt;&amp;nbsp;GeographyStudent &amp;gt;): List&amp;lt;&amp;nbsp;GeographyStudent &amp;gt;" style="text;strokeColor=none;fillColor=none;align=left;verticalAlign=top;spacingLeft=4;spacingRight=4;overflow=hidden;rotatable=0;points=[[0,0.5],[1,0.5]];portConstraint=eastwest;whiteSpace=wrap;html=1;" vertex="1" parent="vsY4UOq4RgM0MMtYdXaH-11">
          <mxGeometry y="190" width="565" height="26" as="geometry" />
        </mxCell>
      </root>
    </mxGraphModel>
  </diagram>
</mxfile>
